<svg xmlns="http://www.w3.org/2000/svg" width="900" height="560" viewBox="0 0 900 560">
<rect width="100%" height="100%" fill="white"/>
<text x="450.0" y="28" text-anchor="middle" font-size="22" font-family="Arial">DRL Training Convergence (Smoothed)</text>
<line x1="80" y1="480" x2="860" y2="480" stroke="black"/>
<line x1="80" y1="480" x2="80" y2="50" stroke="black"/>
<line x1="80" y1="480.0" x2="860" y2="480.0" stroke="#e8e8e8"/>
<text x="72" y="484.0" text-anchor="end" font-size="12" font-family="Arial">0.036</text>
<line x1="80" y1="394.0" x2="860" y2="394.0" stroke="#e8e8e8"/>
<text x="72" y="398.0" text-anchor="end" font-size="12" font-family="Arial">0.189</text>
<line x1="80" y1="308.0" x2="860" y2="308.0" stroke="#e8e8e8"/>
<text x="72" y="312.0" text-anchor="end" font-size="12" font-family="Arial">0.342</text>
<line x1="80" y1="222.0" x2="860" y2="222.0" stroke="#e8e8e8"/>
<text x="72" y="226.0" text-anchor="end" font-size="12" font-family="Arial">0.495</text>
<line x1="80" y1="136.0" x2="860" y2="136.0" stroke="#e8e8e8"/>
<text x="72" y="140.0" text-anchor="end" font-size="12" font-family="Arial">0.648</text>
<line x1="80" y1="50.0" x2="860" y2="50.0" stroke="#e8e8e8"/>
<text x="72" y="54.0" text-anchor="end" font-size="12" font-family="Arial">0.800</text>
<line x1="80.0" y1="480" x2="80.0" y2="485" stroke="black"/>
<text x="80.0" y="502" text-anchor="middle" font-size="12" font-family="Arial">1</text>
<line x1="154.5" y1="480" x2="154.5" y2="485" stroke="black"/>
<text x="154.5" y="502" text-anchor="middle" font-size="12" font-family="Arial">20</text>
<line x1="232.9" y1="480" x2="232.9" y2="485" stroke="black"/>
<text x="232.9" y="502" text-anchor="middle" font-size="12" font-family="Arial">40</text>
<line x1="311.3" y1="480" x2="311.3" y2="485" stroke="black"/>
<text x="311.3" y="502" text-anchor="middle" font-size="12" font-family="Arial">60</text>
<line x1="389.6" y1="480" x2="389.6" y2="485" stroke="black"/>
<text x="389.6" y="502" text-anchor="middle" font-size="12" font-family="Arial">80</text>
<line x1="468.0" y1="480" x2="468.0" y2="485" stroke="black"/>
<text x="468.0" y="502" text-anchor="middle" font-size="12" font-family="Arial">100</text>
<line x1="546.4" y1="480" x2="546.4" y2="485" stroke="black"/>
<text x="546.4" y="502" text-anchor="middle" font-size="12" font-family="Arial">120</text>
<line x1="624.8" y1="480" x2="624.8" y2="485" stroke="black"/>
<text x="624.8" y="502" text-anchor="middle" font-size="12" font-family="Arial">140</text>
<line x1="703.2" y1="480" x2="703.2" y2="485" stroke="black"/>
<text x="703.2" y="502" text-anchor="middle" font-size="12" font-family="Arial">160</text>
<line x1="781.6" y1="480" x2="781.6" y2="485" stroke="black"/>
<text x="781.6" y="502" text-anchor="middle" font-size="12" font-family="Arial">180</text>
<line x1="860.0" y1="480" x2="860.0" y2="485" stroke="black"/>
<text x="860.0" y="502" text-anchor="middle" font-size="12" font-family="Arial">200</text>
<path d="M80.0,444.2 L154.5,413.2 L232.9,384.1 L311.3,329.7 L389.6,282.8 L468.0,243.4 L546.4,209.7 L624.8,181.5 L703.2,159.0 L781.6,140.2 L860.0,125.2" fill="none" stroke="#1f77b4" stroke-width="2.5"/>
<circle cx="80.0" cy="444.2" r="3.5" fill="#1f77b4"/>
<circle cx="154.5" cy="413.2" r="3.5" fill="#1f77b4"/>
<circle cx="232.9" cy="384.1" r="3.5" fill="#1f77b4"/>
<circle cx="311.3" cy="329.7" r="3.5" fill="#1f77b4"/>
<circle cx="389.6" cy="282.8" r="3.5" fill="#1f77b4"/>
<circle cx="468.0" cy="243.4" r="3.5" fill="#1f77b4"/>
<circle cx="546.4" cy="209.7" r="3.5" fill="#1f77b4"/>
<circle cx="624.8" cy="181.5" r="3.5" fill="#1f77b4"/>
<circle cx="703.2" cy="159.0" r="3.5" fill="#1f77b4"/>
<circle cx="781.6" cy="140.2" r="3.5" fill="#1f77b4"/>
<circle cx="860.0" cy="125.2" r="3.5" fill="#1f77b4"/>
<path d="M80.0,432.9 L154.5,396.3 L232.9,365.4 L311.3,305.3 L389.6,254.7 L468.0,211.5 L546.4,174.0 L624.8,144.0 L703.2,119.6 L781.6,100.8 L860.0,85.8" fill="none" stroke="#2ca02c" stroke-width="2.5"/>
<circle cx="80.0" cy="432.9" r="3.5" fill="#2ca02c"/>
<circle cx="154.5" cy="396.3" r="3.5" fill="#2ca02c"/>
<circle cx="232.9" cy="365.4" r="3.5" fill="#2ca02c"/>
<circle cx="311.3" cy="305.3" r="3.5" fill="#2ca02c"/>
<circle cx="389.6" cy="254.7" r="3.5" fill="#2ca02c"/>
<circle cx="468.0" cy="211.5" r="3.5" fill="#2ca02c"/>
<circle cx="546.4" cy="174.0" r="3.5" fill="#2ca02c"/>
<circle cx="624.8" cy="144.0" r="3.5" fill="#2ca02c"/>
<circle cx="703.2" cy="119.6" r="3.5" fill="#2ca02c"/>
<circle cx="781.6" cy="100.8" r="3.5" fill="#2ca02c"/>
<circle cx="860.0" cy="85.8" r="3.5" fill="#2ca02c"/>
<text x="450.0" y="540" text-anchor="middle" font-size="14" font-family="Arial">Training Episode (x1000 requests)</text>
<text x="20" y="280.0" transform="rotate(-90 20 280.0)" text-anchor="middle" font-size="14" font-family="Arial">Smoothed Reward (window=3)</text>
<rect x="698" y="58" width="180" height="72" fill="white" stroke="#ccc"/>
<line x1="710" y1="80" x2="734" y2="80" stroke="#1f77b4" stroke-width="3"/>
<text x="742" y="84" font-size="13" font-family="Arial">DQN-EON</text>
<line x1="710" y1="108" x2="734" y2="108" stroke="#2ca02c" stroke-width="3"/>
<text x="742" y="112" font-size="13" font-family="Arial">PPO-EON</text>
</svg>